<svg xmlns="http://www.w3.org/2000/svg" style="display:none;">

  <symbol role="img" viewBox="0 0 24 24" id="github">
    <path
      d="M12 .297c-6.63 0-12 5.373-12 12 0 5.303 3.438 9.8 8.205 11.385.6.113.82-.258.82-.577 0-.285-.01-1.04-.015-2.04-3.338.724-4.042-1.61-4.042-1.61C4.422 18.07 3.633 17.7 3.633 17.7c-1.087-.744.084-.729.084-.729 1.205.084 1.838 1.236 1.838 1.236 1.07 1.835 2.809 1.305 3.495.998.108-.776.417-1.305.76-1.605-2.665-.3-5.466-1.332-5.466-5.93 0-1.31.465-2.38 1.235-3.22-.135-.303-.54-1.523.105-3.176 0 0 1.005-.322 3.3 1.23.96-.267 1.98-.399 3-.405 1.02.006 2.04.138 3 .405 2.28-1.552 3.285-1.23 3.285-1.23.645 1.653.24 2.873.12 3.176.765.84 1.23 1.91 1.23 3.22 0 4.61-2.805 5.625-5.475 5.92.42.36.81 1.096.81 2.22 0 1.606-.015 2.896-.015 3.286 0 .315.21.69.825.57C20.565 22.092 24 17.592 24 12.297c0-6.627-5.373-12-12-12"
      fill="currentColor"
    />
  </symbol>

  <symbol id="react" viewBox="0 0 640 640">
    <path
      d="M482.2 241.2C476.8 239.4 471.4 237.7 466 236.1C466.9 232.4 467.7 228.7 468.5 225C480.8 165.4 472.7 117.5 445.4 101.7C419.1 86.6 376.2 102.3 332.8 140.1C328.5 143.8 324.3 147.7 320.3 151.6C317.6 149 314.8 146.4 312 143.9C266.5 103.5 220.9 86.5 193.6 102.4C167.4 117.6 159.6 162.7 170.6 219.1C171.7 224.7 172.9 230.2 174.3 235.8C167.9 237.6 161.6 239.6 155.7 241.7C102.3 260.2 64 289.4 64 319.6C64 350.8 104.8 382.1 160.3 401.1C164.8 402.6 169.3 404.1 173.9 405.4C172.4 411.4 171.1 417.3 169.9 423.4C159.4 478.9 167.6 522.9 193.8 538C220.8 553.6 266.2 537.6 310.4 498.9C313.9 495.8 317.4 492.6 320.9 489.2C325.3 493.5 329.9 497.6 334.5 501.6C377.3 538.4 419.6 553.3 445.7 538.2C472.7 522.6 481.5 475.3 470.1 417.7C469.2 413.3 468.2 408.8 467.1 404.2C470.3 403.3 473.4 402.3 476.5 401.3C534.2 382.2 576 351.3 576 319.6C576 289.3 536.6 259.9 482.2 241.2zM346.9 156.3C384.1 123.9 418.8 111.2 434.6 120.3C451.5 130 458 169.2 447.4 220.7C446.7 224.1 446 227.4 445.1 230.7C422.9 225.7 400.4 222.1 377.8 220.1C364.8 201.5 350.6 183.7 335.2 167C339.1 163.3 342.9 159.8 346.9 156.3zM231.2 371.5C236.3 380.2 241.5 388.9 247 397.4C231.4 395.7 215.9 393.2 200.6 389.9C205 375.5 210.5 360.6 216.9 345.4C221.5 354.2 226.2 362.9 231.2 371.5zM200.9 251.2C215.3 248 230.6 245.4 246.5 243.4C241.2 251.7 236 260.2 231.1 268.8C226.2 277.3 221.4 286 216.9 294.8C210.6 279.9 205.3 265.3 200.9 251.2zM228.3 320.1C234.9 306.3 242.1 292.8 249.7 279.5C257.3 266.2 265.5 253.3 274.1 240.6C289.1 239.5 304.4 238.9 320 238.9C335.6 238.9 351 239.5 365.9 240.6C374.4 253.2 382.5 266.1 390.2 279.3C397.9 292.5 405.1 306 411.9 319.7C405.2 333.5 398 347.1 390.3 360.5C382.7 373.8 374.6 386.7 366.1 399.5C351.2 400.6 335.7 401.1 320 401.1C304.3 401.1 289.1 400.6 274.4 399.7C265.7 387 257.5 374 249.8 360.7C242.1 347.4 235 333.9 228.3 320.1zM408.9 371.3C414 362.5 418.8 353.6 423.5 344.6C429.9 359.1 435.5 373.8 440.4 388.9C424.9 392.4 409.2 395.1 393.4 396.9C398.8 388.5 403.9 379.9 408.9 371.3zM423.3 294.8C418.6 286 413.8 277.2 408.8 268.6C403.9 260.1 398.8 251.7 393.5 243.4C409.6 245.4 425 248.1 439.4 251.4C434.8 266.2 429.4 280.6 423.3 294.8zM320.2 182.3C330.7 193.7 340.6 205.7 349.8 218.1C330 217.2 310.1 217.2 290.3 218.1C300.1 205.2 310.2 193.2 320.2 182.3zM204.2 121C221 111.2 258.3 125.2 297.6 160C300.1 162.2 302.6 164.6 305.2 167C289.7 183.7 275.4 201.5 262.3 220.1C239.7 222.1 217.3 225.6 195.1 230.5C193.8 225.4 192.7 220.2 191.6 215C182.2 166.6 188.4 130.1 204.2 121zM179.7 384.6C175.5 383.4 171.4 382.1 167.3 380.7C146 374 121.8 363.4 104.3 349.5C94.2 342.5 87.4 331.7 85.5 319.6C85.5 301.3 117.1 277.9 162.7 262C168.4 260 174.2 258.2 180 256.5C186.8 278.2 195 299.5 204.5 320.1C194.9 341 186.6 362.6 179.7 384.6zM296.3 482.6C279.8 497.7 260.7 509.7 239.9 517.9C228.8 523.2 216 523.7 204.6 519.2C188.7 510 182.1 474.7 191.1 427.2C192.2 421.6 193.4 416 194.8 410.5C217.2 415.3 239.8 418.6 262.7 420.3C275.9 439 290.4 456.9 305.9 473.7C302.7 476.8 299.5 479.8 296.3 482.6zM320.8 458.3C310.6 447.3 300.4 435.1 290.5 422C300.1 422.4 310 422.6 320 422.6C330.3 422.6 340.4 422.4 350.4 421.9C341.2 434.6 331.3 446.7 320.8 458.3zM451.5 488.3C450.6 500.5 444.6 511.9 435 519.6C419.1 528.8 385.2 516.8 348.6 485.4C344.4 481.8 340.2 477.9 335.9 473.9C351.2 457 365.3 439.1 378.1 420.3C401 418.4 423.8 414.9 446.3 409.8C447.3 413.9 448.2 418 449 422C453.9 443.6 454.7 466.1 451.5 488.3zM469.7 380.8C466.9 381.7 464.1 382.6 461.2 383.4C454.2 361.6 445.6 340.3 435.7 319.6C445.3 299.2 453.4 278.2 460.2 256.7C465.4 258.2 470.4 259.8 475.2 261.4C521.8 277.4 554.5 301.2 554.5 319.4C554.5 339 519.6 364.3 469.7 380.8zM320 365.8C345.3 365.8 365.8 345.3 365.8 320C365.8 294.7 345.3 274.2 320 274.2C294.7 274.2 274.2 294.7 274.2 320C274.2 345.3 294.7 365.8 320 365.8z"
      fill="currentColor" />
  </symbol>

  <symbol id="angular" viewBox="0 0 640 640">
    <path
      d="M281.7 332.1L357.9 332.1L319.8 240.5L281.7 332.1zM319.8 96L112 170.4L143.8 446.1L319.8 544L495.8 446.1L527.6 170.4L319.8 96zM450 437.8L401.4 437.8L375.2 372.4L264.6 372.4L238.4 437.8L189.7 437.8L319.8 145.5L450 437.8z"
      fill="currentColor" />
  </symbol>

  <symbol id="bootstrap" viewBox="0 0 640 640">
    <path
      d="M365.5 265.4C365.5 243.3 349.9 231.1 322.5 231.1L272.1 231.1L272.1 302.3L314.6 302.3C347.4 302.2 365.5 289 365.5 265.4zM549 252.6C539.5 221.7 538.1 183.8 539.2 154.5C540.3 124 516.5 96 484.5 96L155.7 96C123.6 96 99.9 124.1 101 154.5C102 183.8 100.7 221.7 91.2 252.6C81.6 283.6 65.5 303.2 39 305.7L39 334.2C65.4 336.7 81.6 356.3 91.2 387.3C100.7 418.2 102.1 456.1 101 485.4C99.9 515.9 123.7 543.9 155.7 543.9L484.4 543.9C516.5 543.9 540.2 515.8 539.1 485.4C538.1 456.1 539.4 418.2 548.9 387.3C558.5 356.3 574.6 336.7 601 334.2L601 305.7C574.7 303.2 558.5 283.6 549 252.6zM332.2 439.1L234.3 439.1L234.3 200.8L331.7 200.8C375 200.8 403.4 224.2 403.4 260.2C403.4 285.5 384.3 308.1 359.9 312L359.9 313.3C393.1 316.9 415.4 339.9 415.4 371.6C415.4 413.7 384.1 439.1 332.2 439.1zM322.2 330.4L272.1 330.4L272.1 408.8L324.4 408.8C358.6 408.8 376.7 395.1 376.7 369.3C376.7 343.6 358.1 330.4 322.2 330.4z"
      fill="currentColor" />
  </symbol>

  <symbol id="html" viewBox="0 0 640 640">
    <path
      d="M128 96L162.9 491.8L319.5 544L477.1 491.8L512 96L128 96zM436.2 223.9L252.4 223.9L256.5 273.3L432.1 273.3L418.5 421.7L320.6 448.7L320.6 449L319.5 449L220.8 421.7L214.8 345.9L262.5 345.9L266 384L319.5 398.5L373.2 384L379.2 321.8L212.3 321.8L199.5 176.2L440.6 176.2L436.2 223.9z" 
      fill="currentColor"/>
  </symbol>

  <symbol id="css" viewBox="0 0 640 640">
    <path
      d="M472.3 96L96 96L96 472.3C96 491.3 103.6 509.5 117 523C130.4 536.5 148.7 544 167.7 544L472.3 544C491.3 544 509.5 536.4 523 523C536.5 509.6 544 491.3 544 472.3L544 167.7C544 148.7 536.4 130.5 523 117C509.6 103.5 491.3 96 472.3 96zM428.4 495.4C420.7 486.9 416.7 474.7 416.4 458.8L447.7 458.8C447.9 472.9 452.8 479.9 462.5 479.9C467.4 479.9 470.9 478.3 473 475.2C475 472.1 476 467.2 476 460.4C476 455 474.7 450.5 472 447C468.5 442.8 463.9 439.5 458.8 437.5L447.2 432C436.9 427.1 429.4 421.2 424.7 414.4C420.2 407.6 418 398.1 418 386C418 372.4 422 361.4 429.8 352.9C437.9 344.4 448.9 340.2 463 340.2C476.6 340.2 487.1 344.4 494.5 352.7C502 361.1 506 373 506.3 388.6L476.2 388.6C476.4 383.5 475.3 378.4 473.2 373.8C471.5 370.4 468.2 368.7 463.2 368.7C454.4 368.7 450 373.9 450 384.4C450 389.7 451.1 393.8 453.2 397C456.3 400.5 460.2 403.2 464.6 404.8L475.7 409.7C487.2 415 495.4 421.4 500.5 429.1C505.6 436.8 508.1 447.1 508.1 460.1C508.1 475.6 504.1 487.5 495.8 495.8C487.6 504.1 476.3 508.3 461.7 508.3C447.1 508.3 436.1 504.1 428.3 495.6zM327.4 495.4C319.7 486.9 315.7 474.7 315.4 458.8L346.7 458.8C346.9 472.9 351.8 479.9 361.5 479.9C366.4 479.9 369.9 478.3 371.9 475.2C373.9 472.1 374.9 467.2 374.9 460.4C374.9 455 373.6 450.5 371 447C367.5 442.8 362.9 439.5 357.8 437.5L346.2 432C335.9 427.1 328.4 421.2 323.7 414.4C319.2 407.6 317 398.1 317 386C317 372.4 321 361.4 328.8 352.9C336.9 344.4 347.9 340.2 362 340.2C375.6 340.2 386.1 344.4 393.4 352.7C401 361.1 404.9 373 405.3 388.6L375.2 388.6C375.4 383.5 374.3 378.4 372.2 373.8C370.5 370.4 367.2 368.7 362.2 368.7C353.4 368.7 349 373.9 349 384.4C349 389.7 350.1 393.8 352.2 397C355.3 400.5 359.2 403.2 363.6 404.8L374.7 409.7C386.2 415 394.4 421.4 399.5 429.1C404.6 436.8 407.1 447.1 407.1 460.1C407.1 475.6 403 487.5 394.8 495.8C386.6 504.1 375.3 508.3 360.7 508.3C346.1 508.3 335.1 504.1 327.3 495.6zM221.8 496.5C213.4 488.8 209.3 477.3 209.3 462L209.3 386.6C209.3 371.4 213.7 359.9 222.5 352C231.4 344.2 243.2 340.2 257.7 340.2C271.8 340.2 282.9 344.2 291.1 352.2C299.4 360.2 303.6 372.2 303.6 388.1L303.6 394.1L270.5 394.1L270.5 388.3C270.5 382.2 269.2 377.6 266.5 374.7C265.4 373.2 263.9 372 262.2 371.2C260.5 370.4 258.7 370 256.8 370.1C251.4 370.1 247.6 371.9 245.4 375.7C243.1 380.9 242.1 386.5 242.4 392.1L242.4 457.6C242.4 471.3 247.2 478.2 256.8 478.4C261.3 478.4 264.7 476.8 267 473.6C269.5 469.5 270.7 464.8 270.5 460L270.5 455.1L303.6 455.1L303.6 460.2C303.6 470.8 301.5 479.7 297.4 486.8C293.4 493.7 287.5 499.3 280.3 502.8C272.6 506.5 264.2 508.3 255.7 508.1C241.5 508.1 230.2 504.2 221.9 496.5z"
      fill="currentColor" />
  </symbol>

  <symbol id="javascript" viewBox="0 0 640 640">
    <path
      d="M544 160C544 124.7 515.3 96 480 96L160 96C124.7 96 96 124.7 96 160L96 480C96 515.3 124.7 544 160 544L480 544C515.3 544 544 515.3 544 480L544 160zM276.9 508.9C243.2 508.9 223.7 491.5 213.7 470.4L248 449.7C254.6 461.4 260.6 471.3 275.1 471.3C288.9 471.3 297.7 465.9 297.7 444.8L297.7 301.7L339.8 301.7L339.8 445.4C339.8 489 314.2 508.9 276.9 508.9zM362.7 465.9L397 446.1C406 460.8 417.8 471.7 438.5 471.7C455.9 471.7 467.1 463 467.1 450.9C467.1 436.5 455.7 431.4 436.4 422.9L425.9 418.4C395.5 405.5 375.4 389.2 375.4 354.9C375.4 323.3 399.5 299.3 437 299.3C463.8 299.3 483 308.6 496.8 333L464 354C456.8 341.1 449 336 436.9 336C424.6 336 416.8 343.8 416.8 354C416.8 366.6 424.6 371.7 442.7 379.6L453.2 384.1C489 399.4 509.1 415.1 509.1 450.3C509.1 488.1 479.3 508.9 439.4 508.9C400.3 508.9 375 490.3 362.7 465.9z"
      fill="currentColor" />
  </symbol>

  <symbol id="node" viewBox="0 0 640 640">
    <path
      d="M320.5 572C313.8 572 307 570.2 301.1 566.8L239.4 530.3C230.2 525.1 234.7 523.3 237.7 522.3C250 518 252.5 517.1 265.6 509.6C267 508.8 268.8 509.1 270.2 510L317.6 538.1C319.3 539.1 321.7 539.1 323.3 538.1L508 431.5C509.7 430.5 510.8 428.5 510.8 426.5L510.8 213.3C510.8 211.2 509.7 209.3 507.9 208.2L323.3 101.7C321.6 100.7 319.3 100.7 317.6 101.7L133.1 208.3C131.3 209.3 130.2 211.3 130.2 213.4L130.2 426.5C130.2 428.5 131.3 430.5 133.1 431.4L183.7 460.6C211.2 474.3 228 458.2 228 441.9L228 231.5C228 228.5 230.4 226.2 233.4 226.2L256.8 226.2C259.7 226.2 262.2 228.5 262.2 231.5L262.2 442C262.2 478.6 242.2 499.6 207.5 499.6C196.8 499.6 188.4 499.6 165 488L116.6 460.1C104.6 453.2 97.2 440.3 97.2 426.4L97.2 213.3C97.2 199.5 104.6 186.5 116.6 179.6L301.1 73C312.8 66.4 328.3 66.4 339.9 73L524.6 179.7C536.6 186.6 544 199.5 544 213.4L544 426.5C544 440.3 536.6 453.2 524.6 460.2L339.9 566.8C334 570.2 327.3 572 320.5 572zM469.6 361.9C469.6 322 442.6 311.4 385.9 303.9C328.5 296.3 322.7 292.4 322.7 279C322.7 267.9 327.6 253.1 370.1 253.1C408 253.1 422 261.3 427.8 286.9C428.3 289.3 430.5 291.1 433 291.1L457 291.1C458.5 291.1 459.9 290.5 460.9 289.4C461.9 288.3 462.4 286.8 462.3 285.3C458.6 241.2 429.3 220.7 370.1 220.7C317.4 220.7 286 242.9 286 280.2C286 320.6 317.3 331.8 367.8 336.8C428.3 342.7 433 351.6 433 363.5C433 384.1 416.4 392.9 377.5 392.9C328.6 392.9 317.9 380.6 314.3 356.3C313.9 353.7 311.7 351.8 309 351.8L285.1 351.8C282.1 351.8 279.8 354.2 279.8 357.1C279.8 388.2 296.7 425.3 377.6 425.3C436 425.2 469.6 402.1 469.6 361.9z"
      fill="currentColor" />
  </symbol>

  <symbol id="linkedin" viewBox="0 0 640 640">
    <path
      d="M512 96L127.9 96C110.3 96 96 110.5 96 128.3L96 511.7C96 529.5 110.3 544 127.9 544L512 544C529.6 544 544 529.5 544 511.7L544 128.3C544 110.5 529.6 96 512 96zM231.4 480L165 480L165 266.2L231.5 266.2L231.5 480L231.4 480zM198.2 160C219.5 160 236.7 177.2 236.7 198.5C236.7 219.8 219.5 237 198.2 237C176.9 237 159.7 219.8 159.7 198.5C159.7 177.2 176.9 160 198.2 160zM480.3 480L413.9 480L413.9 376C413.9 351.2 413.4 319.3 379.4 319.3C344.8 319.3 339.5 346.3 339.5 374.2L339.5 480L273.1 480L273.1 266.2L336.8 266.2L336.8 295.4L337.7 295.4C346.6 278.6 368.3 260.9 400.6 260.9C467.8 260.9 480.3 305.2 480.3 362.8L480.3 480z"
      fill="currentColor" />
  </symbol>

  <symbol id="link" viewBox="0 0 640 640">
    <path
      d="M451.5 160C434.9 160 418.8 164.5 404.7 172.7C388.9 156.7 370.5 143.3 350.2 133.2C378.4 109.2 414.3 96 451.5 96C537.9 96 608 166 608 252.5C608 294 591.5 333.8 562.2 363.1L491.1 434.2C461.8 463.5 422 480 380.5 480C294.1 480 224 410 224 323.5C224 322 224 320.5 224.1 319C224.6 301.3 239.3 287.4 257 287.9C274.7 288.4 288.6 303.1 288.1 320.8C288.1 321.7 288.1 322.6 288.1 323.4C288.1 374.5 329.5 415.9 380.6 415.9C405.1 415.9 428.6 406.2 446 388.8L517.1 317.7C534.4 300.4 544.2 276.8 544.2 252.3C544.2 201.2 502.8 159.8 451.7 159.8zM307.2 237.3C305.3 236.5 303.4 235.4 301.7 234.2C289.1 227.7 274.7 224 259.6 224C235.1 224 211.6 233.7 194.2 251.1L123.1 322.2C105.8 339.5 96 363.1 96 387.6C96 438.7 137.4 480.1 188.5 480.1C205 480.1 221.1 475.7 235.2 467.5C251 483.5 269.4 496.9 289.8 507C261.6 530.9 225.8 544.2 188.5 544.2C102.1 544.2 32 474.2 32 387.7C32 346.2 48.5 306.4 77.8 277.1L148.9 206C178.2 176.7 218 160.2 259.5 160.2C346.1 160.2 416 230.8 416 317.1C416 318.4 416 319.7 416 321C415.6 338.7 400.9 352.6 383.2 352.2C365.5 351.8 351.6 337.1 352 319.4C352 318.6 352 317.9 352 317.1C352 283.4 334 253.8 307.2 237.5z" 
      fill="currentColor"/>
  </symbol>
</svg>